<?xml version="1.0" encoding="UTF-8"?>
<svg xmlns="http://www.w3.org/2000/svg" xmlns:xlink="http://www.w3.org/1999/xlink" width="362.58pt" height="214.27pt" viewBox="0 0 362.58 214.27" version="1.1">
<defs>
<clipPath id="clip1">
  <path d="M 225 201 L 237 201 L 237 214.269531 L 225 214.269531 Z M 225 201 "/>
</clipPath>
<clipPath id="clip2">
  <path d="M 3 0 L 362.578125 0 L 362.578125 209 L 3 209 Z M 3 0 "/>
</clipPath>
</defs>
<g id="surface1">
<path style=" stroke:none;fill-rule:nonzero;fill:rgb(1.998901%,27.099609%,57.998657%);fill-opacity:1;" d="M 189.410156 123.957031 C 188.542969 120.507813 188.640625 118.179688 187.875 118.179688 C 187.488281 118.179688 187.390625 118.355469 187.296875 118.453125 C 184.800781 121.996094 182.789063 124.886719 176.0625 124.886719 C 169.445313 124.886719 164.164063 121.347656 164.164063 114.535156 C 164.164063 106.421875 175.011719 103.0625 181.441406 100.082031 C 186.914063 97.5625 188.257813 97.367188 188.257813 91.316406 C 188.257813 86.652344 186.433594 83.105469 180.773438 83.105469 C 171.644531 83.105469 175.398438 92.058594 169.148438 92.058594 C 167.046875 92.058594 165.605469 91.027344 165.605469 88.796875 C 165.605469 82.457031 175.300781 80.3125 182.695313 80.3125 C 189.503906 80.3125 195.367188 81.800781 195.367188 87.863281 L 195.367188 108.390625 C 195.367188 113.882813 195.070313 119.574219 198.050781 123.394531 Z M 179.617188 119.664063 C 185.378906 119.664063 188.257813 114.628906 188.257813 109.316406 L 188.257813 99.894531 L 183.074219 102.410156 C 175.976563 105.867188 172.222656 107.726563 172.222656 113.042969 C 172.222656 117.519531 175.300781 119.664063 179.617188 119.664063 "/>
<path style=" stroke:none;fill-rule:nonzero;fill:rgb(1.998901%,27.099609%,57.998657%);fill-opacity:1;" d="M 214.699219 113.242188 L 214.699219 85.308594 C 219.109375 84.765625 223.390625 83.511719 225.21875 80.621094 C 221.839844 80.921875 218.277344 81.074219 214.699219 81.15625 L 214.699219 68.003906 L 207.984375 69.78125 L 207.601563 81.242188 C 206.066406 81.25 204.5625 81.25 203.097656 81.25 L 203.097656 85.726563 L 207.601563 85.722656 L 207.601563 114.632813 C 207.601563 120.324219 209.90625 124.335938 216.234375 124.335938 C 219.886719 124.335938 224.402344 121.542969 224.492188 120.699219 L 224.878906 116.6875 C 223.816406 117.710938 220.75 118.921875 219.023438 118.921875 C 215.179688 118.921875 214.699219 116.3125 214.699219 113.242188 "/>
<path style=" stroke:none;fill-rule:nonzero;fill:rgb(1.998901%,27.099609%,57.998657%);fill-opacity:1;" d="M 164.0625 182.4375 L 164.0625 154.511719 C 168.46875 153.96875 172.75 152.722656 174.578125 149.828125 C 171.195313 150.121094 167.632813 150.273438 164.0625 150.363281 L 164.0625 137.214844 L 157.34375 138.984375 L 156.957031 150.441406 C 155.429688 150.453125 153.921875 150.453125 152.453125 150.453125 L 152.453125 154.929688 L 156.957031 154.921875 L 156.957031 183.839844 C 156.957031 189.527344 159.253906 193.542969 165.59375 193.542969 C 169.25 193.542969 173.753906 190.742188 173.851563 189.898438 L 174.234375 185.886719 C 173.179688 186.917969 170.101563 188.132813 168.382813 188.132813 C 164.542969 188.132813 164.0625 185.519531 164.0625 182.4375 "/>
<path style=" stroke:none;fill-rule:nonzero;fill:rgb(1.998901%,27.099609%,57.998657%);fill-opacity:1;" d="M 87.050781 73.503906 C 80.53125 68.371094 75.050781 66.503906 67.65625 66.503906 C 52.777344 66.503906 44.621094 78.726563 44.621094 92.339844 C 44.621094 109.589844 52.589844 120.785156 71.113281 120.785156 C 73.609375 120.785156 75.820313 120.503906 78.222656 120.128906 C 79.183594 116.957031 79.183594 113.695313 79.183594 110.523438 L 79.183594 105.949219 C 79.183594 102.898438 79.15625 99.5 78.363281 96.644531 C 77.875 94.894531 76.179688 94.894531 73.824219 93.742188 L 87.796875 93.742188 L 87.820313 115.285156 C 87.820313 117.707031 88.105469 121.066406 88.492188 123.398438 C 82.628906 124.328125 74.765625 124.886719 68.046875 124.886719 C 47.789063 124.886719 34.640625 116.21875 34.640625 95.234375 C 34.640625 72.660156 51.058594 62.40625 72.558594 62.40625 C 77.359375 62.40625 82.15625 63.058594 87.050781 63.429688 L 87.050781 73.503906 "/>
<path style=" stroke:none;fill-rule:nonzero;fill:rgb(1.998901%,27.099609%,57.998657%);fill-opacity:1;" d="M 99.820313 96.726563 C 99.820313 90.101563 99.820313 83.664063 97.328125 81.707031 C 100.882813 81.617188 104.238281 81.242188 105.386719 81.242188 C 107.117188 81.242188 106.0625 85.90625 107.117188 85.90625 C 107.601563 85.90625 110.765625 80.308594 116.425781 80.308594 C 119.789063 80.308594 121.707031 81.617188 121.707031 83.851563 C 121.707031 85.625 120.742188 86.929688 118.347656 86.929688 C 116.515625 86.929688 114.605469 86.652344 112.300781 86.652344 C 107.507813 86.652344 106.925781 89.914063 106.925781 94.023438 L 106.925781 113.230469 C 106.925781 116.683594 106.925781 120.691406 108.65625 123.398438 L 98.097656 123.398438 C 99.820313 120.691406 99.820313 116.683594 99.820313 113.230469 L 99.820313 96.726563 "/>
<path style=" stroke:none;fill-rule:nonzero;fill:rgb(1.998901%,27.099609%,57.998657%);fill-opacity:1;" d="M 132.03125 96.535156 C 131.84375 98.3125 131.652344 99.800781 131.652344 101.761719 C 131.652344 110.433594 135.683594 118.734375 145.667969 118.734375 C 150.371094 118.734375 154.972656 116.867188 157.285156 114.351563 L 157.285156 115.378906 C 157.285156 120.316406 149.21875 124.886719 142.117188 124.886719 C 129.539063 124.886719 123.589844 113.882813 123.589844 102.597656 C 123.589844 90.472656 130.496094 80.308594 143.644531 80.308594 C 152.867188 80.308594 158.332031 86.183594 158.332031 92.25 C 158.332031 96.535156 155.167969 96.535156 149.21875 96.535156 Z M 142.628906 93.742188 C 147.328125 93.742188 149.828125 93.742188 149.828125 90.199219 C 149.828125 86.742188 147.234375 83.105469 142.53125 83.105469 C 136.480469 83.105469 133.890625 88.796875 132.734375 93.742188 L 142.628906 93.742188 "/>
<path style=" stroke:none;fill-rule:nonzero;fill:rgb(1.998901%,27.099609%,57.998657%);fill-opacity:1;" d="M 45.148438 188.320313 L 56.667969 188.320313 C 62.609375 188.320313 68.757813 186.917969 73.269531 183 L 71.546875 191.582031 C 68.949219 191.769531 65.785156 192.046875 62.332031 192.046875 L 34.351563 192.046875 C 36.464844 188.875 36.753906 184.023438 36.753906 179.832031 L 36.753906 144.769531 C 36.753906 140.566406 36.753906 135.71875 34.640625 132.550781 L 68.375 132.550781 L 68.757813 139.730469 C 65.402344 136.925781 60.214844 136.28125 54.546875 136.28125 L 45.148438 136.28125 L 45.148438 158.5625 C 52.539063 158.5625 60.789063 158.5625 68.179688 157.914063 C 64.828125 163.230469 53.503906 163.230469 47.546875 163.230469 L 45.148438 163.230469 L 45.148438 188.320313 "/>
<path style=" stroke:none;fill-rule:nonzero;fill:rgb(1.998901%,27.099609%,57.998657%);fill-opacity:1;" d="M 103.496094 192.605469 C 102.636719 189.15625 102.734375 186.824219 101.964844 186.824219 C 101.585938 186.824219 101.484375 187.011719 101.394531 187.101563 C 98.894531 190.65625 96.875 193.542969 90.15625 193.542969 C 83.527344 193.542969 78.257813 189.992188 78.257813 183.191406 C 78.257813 175.074219 89.101563 171.714844 95.53125 168.734375 C 101.007813 166.214844 102.351563 166.027344 102.351563 159.964844 C 102.351563 155.296875 100.523438 151.761719 94.855469 151.761719 C 85.746094 151.761719 89.480469 160.710938 83.25 160.710938 C 81.132813 160.710938 79.695313 159.6875 79.695313 157.445313 C 79.695313 151.113281 89.390625 148.957031 96.777344 148.957031 C 103.597656 148.957031 109.445313 150.453125 109.445313 156.515625 L 109.445313 177.035156 C 109.445313 182.535156 109.160156 188.226563 112.144531 192.046875 Z M 93.707031 188.320313 C 99.46875 188.320313 102.351563 183.277344 102.351563 177.96875 L 102.351563 168.546875 L 97.164063 171.066406 C 90.066406 174.519531 86.316406 176.375 86.316406 181.699219 C 86.316406 186.171875 89.390625 188.320313 93.707031 188.320313 "/>
<path style=" stroke:none;fill-rule:nonzero;fill:rgb(1.998901%,27.099609%,57.998657%);fill-opacity:1;" d="M 147.027344 180.207031 C 147.027344 189.0625 138.199219 193.542969 130.039063 193.542969 C 126.195313 193.542969 122.9375 192.792969 119.386719 191.484375 C 118.324219 191.113281 117.753906 190.742188 117.753906 189.4375 C 117.753906 187.195313 118.140625 184.957031 118.230469 182.636719 C 121.210938 187.296875 123.609375 190.183594 129.945313 190.183594 C 135.605469 190.183594 138.957031 187.574219 138.957031 182.253906 C 138.957031 170.878906 119.960938 172.738281 119.960938 158.945313 C 119.960938 151.945313 125.53125 148.957031 134.546875 148.957031 C 137.429688 148.957031 140.40625 149.425781 143.285156 150.074219 C 143.578125 150.175781 144.53125 150.363281 144.53125 150.917969 C 144.53125 152.59375 144.441406 155.300781 144.339844 157.261719 C 140.597656 152.695313 138.675781 151.761719 134.261719 151.761719 C 130.519531 151.761719 127.0625 153.4375 127.0625 157.445313 C 127.0625 168.546875 147.027344 167.238281 147.027344 180.207031 "/>
<path style=" stroke:none;fill-rule:nonzero;fill:rgb(1.998901%,27.099609%,57.998657%);fill-opacity:1;" d="M 187.289063 165.191406 C 187.09375 166.960938 186.902344 168.453125 186.902344 170.410156 C 186.902344 179.082031 190.933594 187.382813 200.910156 187.382813 C 205.613281 187.382813 210.222656 185.519531 212.527344 183 L 212.527344 184.023438 C 212.527344 188.96875 204.460938 193.542969 197.367188 193.542969 C 184.789063 193.542969 178.839844 182.535156 178.839844 171.25 C 178.839844 159.136719 185.75 148.957031 198.894531 148.957031 C 208.113281 148.957031 213.582031 154.839844 213.582031 160.894531 C 213.582031 165.191406 210.410156 165.191406 204.460938 165.191406 Z M 197.742188 162.390625 C 202.449219 162.390625 204.945313 162.390625 204.945313 158.84375 C 204.945313 155.394531 202.351563 151.761719 197.648438 151.761719 C 191.605469 151.761719 189.011719 157.445313 187.855469 162.390625 L 197.742188 162.390625 "/>
<path style=" stroke:none;fill-rule:nonzero;fill:rgb(1.998901%,27.099609%,57.998657%);fill-opacity:1;" d="M 222.667969 165.378906 C 222.667969 158.75 222.667969 152.320313 220.183594 150.363281 C 223.738281 150.265625 227.097656 149.898438 228.246094 149.898438 C 229.976563 149.898438 228.921875 154.554688 229.976563 154.554688 C 230.453125 154.554688 233.621094 148.957031 239.28125 148.957031 C 242.644531 148.957031 244.558594 150.265625 244.558594 152.507813 C 244.558594 154.277344 243.605469 155.585938 241.203125 155.585938 C 239.378906 155.585938 237.453125 155.296875 235.160156 155.296875 C 230.355469 155.296875 229.78125 158.5625 229.78125 162.667969 L 229.78125 181.882813 C 229.78125 185.324219 229.78125 189.347656 231.503906 192.046875 L 220.953125 192.046875 C 222.667969 189.347656 222.667969 185.324219 222.667969 181.882813 L 222.667969 165.378906 "/>
<path style=" stroke:none;fill-rule:nonzero;fill:rgb(1.998901%,27.099609%,57.998657%);fill-opacity:1;" d="M 258.375 149.898438 L 258.375 153.160156 C 258.375 153.902344 258.273438 154.648438 258.945313 154.648438 C 259.8125 154.648438 264.03125 148.957031 271.523438 148.957031 C 278.726563 148.957031 283.230469 152.410156 283.230469 161.082031 L 283.230469 181.96875 C 283.230469 185.425781 283.230469 189.4375 284.761719 192.046875 L 276.128906 192.046875 L 276.128906 166.492188 C 276.128906 160.519531 275.261719 153.996094 267.585938 153.996094 C 260 153.996094 258.5625 160.621094 258.5625 166.960938 L 258.5625 181.96875 C 258.5625 185.425781 258.5625 189.4375 260.289063 192.046875 L 249.734375 192.046875 C 251.460938 189.4375 251.460938 185.425781 251.460938 181.96875 L 251.460938 159.777344 C 251.460938 155.957031 251.460938 152.320313 249.441406 150.453125 L 258.375 149.898438 "/>
<path style=" stroke:none;fill-rule:nonzero;fill:rgb(92.89856%,10.998535%,13.699341%);fill-opacity:1;" d="M 38.402344 203.683594 L 34.765625 203.683594 L 34.765625 201.199219 L 44.847656 201.199219 L 44.847656 203.683594 L 41.214844 203.683594 L 41.214844 213.945313 L 38.402344 213.945313 "/>
<path style=" stroke:none;fill-rule:nonzero;fill:rgb(92.89856%,10.998535%,13.699341%);fill-opacity:1;" d="M 75.992188 204.90625 L 74.441406 208.867188 L 77.558594 208.867188 Z M 74.910156 201.199219 L 77.234375 201.199219 L 82.78125 213.945313 L 79.609375 213.945313 L 78.511719 211.246094 L 73.5625 211.246094 L 72.5 213.945313 L 69.402344 213.945313 "/>
<path style=" stroke:none;fill-rule:nonzero;fill:rgb(92.89856%,10.998535%,13.699341%);fill-opacity:1;" d="M 110.261719 201.199219 L 113.070313 201.199219 L 113.070313 206.492188 L 118.023438 201.199219 L 121.695313 201.199219 L 116.023438 207.121094 L 122.183594 213.945313 L 118.257813 213.945313 L 113.070313 207.894531 L 113.070313 213.945313 L 110.261719 213.945313 "/>
<path style=" stroke:none;fill-rule:nonzero;fill:rgb(92.89856%,10.998535%,13.699341%);fill-opacity:1;" d="M 154.527344 204.90625 L 152.976563 208.867188 L 156.09375 208.867188 Z M 153.445313 201.199219 L 155.769531 201.199219 L 161.3125 213.945313 L 158.144531 213.945313 L 157.046875 211.246094 L 152.09375 211.246094 L 151.03125 213.945313 L 147.9375 213.945313 "/>
<path style=" stroke:none;fill-rule:nonzero;fill:rgb(92.89856%,10.998535%,13.699341%);fill-opacity:1;" d="M 188.796875 201.199219 L 197.347656 201.199219 L 197.347656 203.792969 L 191.605469 203.792969 L 191.605469 206.382813 L 196.914063 206.382813 L 196.914063 208.976563 L 191.605469 208.976563 L 191.605469 213.945313 L 188.796875 213.945313 "/>
<g clip-path="url(#clip1)" clip-rule="nonzero">
<path style=" stroke:none;fill-rule:nonzero;fill:rgb(92.89856%,10.998535%,13.699341%);fill-opacity:1;" d="M 236.210938 209.03125 C 236.210938 212.039063 234.371094 214.269531 230.84375 214.269531 C 227.296875 214.269531 225.460938 212.039063 225.460938 209.03125 L 225.460938 201.199219 L 228.269531 201.199219 L 228.269531 208.921875 C 228.269531 210.488281 229.351563 211.675781 230.84375 211.675781 C 232.320313 211.675781 233.402344 210.488281 233.402344 208.921875 L 233.402344 201.199219 L 236.210938 201.199219 "/>
</g>
<path style=" stroke:none;fill-rule:nonzero;fill:rgb(92.89856%,10.998535%,13.699341%);fill-opacity:1;" d="M 265.007813 201.199219 L 267.816406 201.199219 L 267.816406 211.351563 L 273.019531 211.351563 L 273.019531 213.945313 L 265.007813 213.945313 "/>
<g clip-path="url(#clip2)" clip-rule="nonzero">
<path style=" stroke:none;fill-rule:nonzero;fill:rgb(100%,79.598999%,1.199341%);fill-opacity:1;" d="M 153.351563 4.378906 C 257.300781 4.378906 341.902344 95.195313 344.78125 208.421875 L 362.550781 208.421875 C 362.558594 207.785156 362.574219 207.15625 362.574219 206.523438 C 362.574219 92.460938 273.445313 -0.00390625 163.5 -0.00390625 C 97.980469 -0.00390625 39.855469 32.839844 3.582031 83.519531 C 38.667969 35.289063 92.714844 4.378906 153.351563 4.378906 "/>
</g>
<path style=" stroke:none;fill-rule:nonzero;fill:rgb(94.099426%,35.299683%,12.89978%);fill-opacity:1;" d="M 0.527344 89.058594 C 34.035156 40.359375 86.261719 9.046875 144.949219 9.046875 C 243.621094 9.046875 324.050781 97.574219 327.890625 208.421875 L 344.78125 208.421875 C 341.902344 95.195313 257.300781 4.378906 153.351563 4.378906 C 92.714844 4.378906 38.667969 35.289063 3.582031 83.519531 C 2.503906 85.019531 1.449219 86.539063 0.414063 88.070313 C -0.488281 89.40625 0.339844 89.335938 0.527344 89.058594 "/>
<path style=" stroke:none;fill-rule:nonzero;fill:rgb(92.89856%,10.998535%,13.699341%);fill-opacity:1;" d="M 0.765625 88.871094 C 32.546875 42.597656 80.960938 13.046875 135.195313 13.046875 C 228.023438 13.046875 303.808594 99.613281 308.328125 208.421875 L 327.890625 208.421875 C 324.050781 97.574219 243.617188 9.046875 144.949219 9.046875 C 86.351563 9.046875 34.191406 40.265625 0.679688 88.839844 C 0.496094 89.105469 0.632813 89.0625 0.765625 88.871094 "/>
</g>
</svg>
