<?xml version="1.0" standalone="no"?>
<!DOCTYPE svg PUBLIC "-//W3C//DTD SVG 20010904//EN"
 "http://www.w3.org/TR/2001/REC-SVG-20010904/DTD/svg10.dtd">
<svg version="1.0" xmlns="http://www.w3.org/2000/svg"
 width="221.000000pt" height="221.000000pt" viewBox="0 0 221.000000 221.000000"
 preserveAspectRatio="xMidYMid meet">
<metadata>
Created by potrace 1.14, written by Peter Selinger 2001-2017
</metadata>
<g transform="translate(0.000000,221.000000) scale(0.100000,-0.100000)"
fill="#000000" stroke="none">
<path d="M152 1852 c-12 -2 -27 -13 -33 -24 -12 -23 -17 -1328 -5 -1366 7 -21
52 -42 91 -42 14 0 25 -8 28 -20 5 -20 12 -20 134 -18 l128 3 3 278 2 277 56
0 55 0 24 -52 c152 -338 196 -430 208 -442 8 -8 32 -18 53 -22 21 -4 45 -15
52 -26 12 -16 28 -18 143 -18 98 0 131 3 135 13 2 7 -35 96 -84 198 -116 238
-172 359 -172 368 0 4 22 18 48 30 159 74 238 268 188 459 l-13 52 88 0 89 0
0 -517 c0 -285 4 -523 8 -530 10 -16 57 -33 94 -33 17 0 28 -3 25 -7 -4 -3 -2
-12 4 -20 15 -17 239 -19 257 -1 9 9 12 147 12 560 l0 548 179 0 c141 0 181 3
190 14 8 9 11 48 9 112 -3 92 -4 99 -27 110 -17 9 -24 22 -27 50 -6 72 21 69
-527 69 -270 1 -503 -2 -517 -5 -14 -4 -32 -20 -40 -36 -8 -16 -16 -31 -17
-33 -2 -2 -8 1 -15 7 -17 14 -110 50 -151 58 -32 7 -632 12 -675 6z m653 -77
c22 -3 57 -13 78 -23 38 -16 28 -17 -305 -17 l-343 0 -3 -617 -2 -618 -25 0
-25 0 0 640 0 639 58 3 c90 5 523 -1 567 -7z m1219 -3 c2 -4 1 -14 -3 -21 -6
-10 -101 -12 -437 -13 -236 0 -437 -4 -446 -9 -12 -7 -16 -20 -14 -54 1 -25 1
-45 0 -45 -11 0 -48 83 -50 113 l-3 37 474 0 c260 0 476 -4 479 -8z m-1217
-291 c29 -40 22 -133 -13 -169 -31 -30 -84 -42 -189 -42 l-105 0 1 115 0 114
117 3 c141 4 173 0 189 -21z m685 7 c3 -11 2 -956 -1 -981 -1 -5 -11 -7 -23
-5 l-23 3 -1 498 0 497 22 0 c12 0 24 -6 26 -12z m-546 -132 c8 -55 -3 -100
-33 -136 -46 -56 -73 -63 -233 -65 -166 -2 -179 0 -177 25 1 17 12 18 111 19
127 1 173 13 220 55 43 38 66 91 66 153 l0 48 20 -31 c11 -16 22 -47 26 -68z
m-228 -461 c-3 -3 -9 2 -12 12 -6 14 -5 15 5 6 7 -7 10 -15 7 -18z m61 -130
c0 -5 -13 15 -29 45 -16 30 -29 60 -29 65 0 6 13 -15 29 -45 16 -30 29 -59 29
-65z m30 -70 c0 -5 -6 1 -14 15 -8 14 -14 30 -14 35 0 6 6 -1 14 -15 8 -14 14
-29 14 -35z m19 -40 c-3 -3 -9 2 -12 12 -6 14 -5 15 5 6 7 -7 10 -15 7 -18z
m31 -68 c11 -26 18 -47 15 -47 -5 0 -44 86 -44 97 0 12 9 -4 29 -50z m35 -73
c3 -8 2 -12 -4 -9 -6 3 -10 10 -10 16 0 14 7 11 14 -7z"/>
</g>
</svg>
